<svg version="1.0" xmlns="http://www.w3.org/2000/svg" width="300" height="300" viewBox="0 0 300.000000 300.000000" preserveAspectRatio="xMidYMid " class="svg" style="width: 256px; height: 256px;">
<g transform="translate(0.000000,300.000000) scale(0.100000,-0.100000)" fill="#070707" stroke="none">
<path d="M1061 2689 c-90 -27 -171 -110 -201 -207 -25 -80 -25 -104 0 -185 27
-87 95 -163 180 -201 l61 -27 -3 -82 -3 -81 -62 -22 c-192 -65 -297 -236 -272
-443 17 -150 121 -273 272 -325 l62 -22 3 -81 3 -82 -61 -27 c-85 -38 -153
-114 -180 -201 -25 -82 -25 -105 1 -189 28 -90 108 -174 189 -198 68 -20 152
-20 220 0 81 24 161 108 189 198 26 83 26 108 3 183 -33 104 -85 163 -187 209
l-56 26 3 81 3 82 50 16 c72 23 111 45 161 91 l43 40 63 -36 c35 -20 69 -40
76 -44 9 -6 10 -21 3 -59 -13 -69 8 -169 49 -228 17 -25 55 -61 83 -80 167
-110 384 -47 466 136 31 68 29 194 -4 259 -35 69 -75 111 -137 146 -48 26 -62
29 -148 29 -102 0 -140 -13 -208 -70 l-31 -26 -76 42 c-59 32 -75 45 -69 58
24 57 24 204 0 262 -6 13 10 26 69 58 l76 42 31 -26 c68 -57 106 -70 208 -70
74 0 103 4 130 19 66 35 116 84 149 146 29 54 33 70 33 140 0 90 -25 159 -80
221 -66 75 -205 116 -309 90 -66 -16 -145 -71 -183 -126 -41 -59 -62 -159 -49
-228 7 -38 6 -53 -3 -59 -7 -4 -41 -24 -76 -44 l-63 -36 -43 40 c-50 46 -89
68 -161 91 l-50 16 -3 81 -3 82 63 30 c100 49 148 103 179 203 24 77 24 101
-2 185 -28 90 -108 174 -189 198 -59 18 -156 20 -209 5z m168 -169 c139 -70
87 -280 -69 -280 -155 0 -208 208 -72 280 48 25 93 25 141 0z m752 -434 c19
-8 48 -29 64 -46 27 -28 30 -38 30 -96 0 -64 -1 -66 -42 -105 -39 -36 -47 -39
-99 -39 -68 0 -113 26 -138 77 -40 84 1 180 89 211 42 14 57 14 96 -2z m-760
-376 c55 -15 124 -82 143 -137 20 -59 20 -87 0 -146 -27 -79 -121 -147 -204
-147 -83 0 -177 68 -204 147 -9 26 -16 58 -16 73 0 55 31 119 77 160 64 56
126 71 204 50z m770 -516 c8 -2 31 -20 50 -40 32 -33 34 -40 34 -99 0 -59 -3
-67 -33 -98 -45 -47 -97 -63 -148 -47 -96 31 -140 126 -98 212 34 71 103 96
195 72z m-761 -449 c106 -55 105 -211 -1 -265 -49 -25 -89 -25 -138 0 -137 70
-87 280 67 280 24 0 56 -7 72 -15z" id="node1" class="node"></path>
</g>
<g transform="translate(0.000000,300.000000) scale(0.100000,-0.100000)" fill="#9F9F9F" stroke="none">

<path d="M1088 2520 c-136 -72 -83 -280 72 -280 156 0 208 210 69 280 -48 25
-93 25 -141 0z" id="node3" class="node"></path>
<path d="M1885 2088 c-88 -31 -129 -127 -89 -211 25 -51 70 -77 138 -77 52 0
60 3 99 39 41 39 42 41 42 105 0 58 -3 68 -30 96 -31 33 -85 61 -114 59 -9 0
-29 -5 -46 -11z" id="node4" class="node"></path>
<path d="M1094 1709 c-51 -14 -120 -83 -138 -136 -9 -26 -16 -58 -16 -73 0
-110 110 -220 220 -220 83 0 177 68 204 147 20 59 20 87 0 146 -11 31 -31 60
-61 87 -64 56 -131 72 -209 49z" id="node5" class="node"></path>
<path d="M1894 1200 c-117 -27 -153 -174 -62 -256 62 -57 147 -52 210 13 30
31 33 39 33 98 0 59 -2 66 -34 99 -19 20 -42 38 -50 40 -42 11 -69 13 -97 6z" id="node6" class="node"></path>
<path d="M1084 741 c-101 -61 -97 -208 7 -261 49 -25 89 -25 138 0 106 54 107
210 1 265 -40 21 -108 19 -146 -4z" id="node7" class="node"></path>
</g>
</svg>
